Coordinates
version=1
nRows=19
nColumns=36
inDegrees=yes

Units are S.I. units (second, meters, Newtons, ...)
If the header above contains a line with 'inDegrees', this indicates whether rotational values are in degrees (yes) or radians (no).

endheader
time	pelvis_tilt	pelvis_list	pelvis_rotation	pelvis_tx	pelvis_ty	pelvis_tz	hip_flexion_r	hip_adduction_r	hip_rotation_r	knee_angle_r	knee_angle_r_beta	ankle_angle_r	subtalar_angle_r	mtp_angle_r	hip_flexion_l	hip_adduction_l	hip_rotation_l	knee_angle_l	knee_angle_l_beta	ankle_angle_l	subtalar_angle_l	mtp_angle_l	lumbar_extension	lumbar_bending	lumbar_rotation	arm_flex_r	arm_add_r	arm_rot_r	elbow_flex_r	pro_sup_r	arm_flex_l	arm_add_l	arm_rot_l	elbow_flex_l	pro_sup_l
      0.00000000	     -3.97102267	     -6.21312733	      1.48493639	     -0.04606690	      0.89500031	     -0.20836725	     26.29123701	      7.60514791	     -3.03472229	      7.12880800	      0.12442117	     -3.58513459	     -4.54910142	     -5.84677914	    -18.59267041	     -2.58506629	      1.17508756	     14.74980951	      0.25743274	      7.27369239	      2.98128274	     -5.84677914	     -6.95478899	     18.61499793	    -11.90221482	    -14.68806858	    -10.37224459	    -28.46918611	     34.17078823	     96.03957571	     -4.96207344	     -6.28168694	     -2.47748216	     37.51303164	     95.03250290
      0.01000000	     -4.23275276	     -6.85220988	      1.11890366	     -0.03492168	      0.89626819	     -0.20815903	     25.94058089	      8.44264264	     -2.79903191	      7.26010138	      0.12671267	     -4.15923908	     -4.89437685	     -5.87166674	    -18.15234789	     -3.19114886	      0.44073527	     16.07663453	      0.28059021	      5.41440967	      2.55240283	     -5.87166674	     -6.92196114	     19.92233428	    -11.87643398	    -14.58216246	    -10.76681091	    -28.36284256	     34.28979598	     96.31386899	     -5.11905617	     -5.97199123	     -2.19261654	     37.37423661	     95.27308704
      0.02000000	     -4.51602608	     -7.37135528	      0.81049915	     -0.02391598	      0.89761642	     -0.20800118	     25.49849287	      9.17350888	     -2.20426882	      7.14284807	      0.12466622	     -5.24706686	     -6.00831754	     -5.95933105	    -17.73464081	     -3.61172119	      0.36057999	     17.27121897	      0.30143964	      3.24817677	      1.28746045	     -5.95933105	     -6.85763384	     21.09558731	    -11.88206741	    -14.50770526	    -11.07658197	    -28.40957208	     34.50943483	     97.11640340	     -5.17006134	     -5.73245748	     -1.72427238	     37.03535702	     96.04271101
      0.03000000	     -4.75502540	     -7.88675949	      0.62409705	     -0.01282699	      0.89907314	     -0.20799552	     25.04904826	      9.81325972	     -2.10191760	      7.17767602	      0.12527408	     -5.36337852	     -5.97398816	     -5.98110925	    -17.23193576	     -4.15046295	      0.01730575	     18.68067055	      0.32603921	      1.60476767	      1.06927368	     -5.98110925	     -6.80033501	     22.26537600	    -12.10309840	    -14.32340953	    -11.36202203	    -28.52828321	     34.69946196	     97.28149683	     -5.34864894	     -5.45142523	     -1.53454602	     37.02895914	     96.22953148
      0.04000000	     -4.99434554	     -8.33787986	      0.48410968	     -0.00178200	      0.90066864	     -0.20803724	     24.52910691	     10.38244394	     -1.95399457	      7.08823629	      0.12371306	     -5.48725074	     -6.04708013	     -6.00264563	    -16.65341825	     -4.64037638	     -0.22354008	     20.15041518	      0.35169109	     -0.22849794	      0.67289510	     -6.00264563	     -6.69774813	     23.35693494	    -12.35776386	    -14.17587154	    -11.63555209	    -28.66608363	     34.96200154	     97.44517332	     -5.54544140	     -5.24395631	     -1.26954060	     37.12033335	     96.43002876
      0.05000000	     -5.20271633	     -8.65859942	      0.41842867	      0.00913323	      0.90245211	     -0.20820588	     23.89881612	     10.81890517	     -1.54001807	      6.85581106	      0.11965648	     -5.89648864	     -6.73300252	     -6.08724161	    -16.05370955	     -4.97118177	     -0.11952392	     21.59948821	      0.37698219	     -2.54589313	     -0.53884951	     -6.08724161	     -6.62805549	     24.31215157	    -12.55890835	    -14.09642007	    -11.78445686	    -29.13887065	     35.33772499	     98.04082793	     -5.65361366	     -5.11670961	     -0.68987277	     37.28033611	     97.10651736
      0.06000000	     -5.29624057	     -8.91672157	      0.45257381	      0.01987543	      0.90441499	     -0.20840099	     23.19854180	     11.13675519	     -1.37428560	      6.75163093	      0.11783819	     -5.67645733	     -6.76257230	     -6.09748467	    -15.41993205	     -5.34223243	     -0.07150313	     23.27575028	      0.40623848	     -4.03959626	     -0.41323738	     -6.09748467	     -6.66518301	     25.14746181	    -12.79254564	    -13.94970514	    -11.94483584	    -29.21892604	     35.49829135	     98.11129661	     -5.67685664	     -4.98164187	     -0.44545703	     37.54479536	     97.22359743
      0.07000000	     -5.49883003	     -9.19159954	      0.48612578	      0.03070410	      0.90626320	     -0.20856482	     22.53545202	     11.46988496	     -1.16398288	      6.49310686	      0.11332609	     -5.45099875	     -6.86966209	     -6.11278548	    -14.51869739	     -5.82867691	     -0.42191177	     25.12534873	      0.43852006	     -6.01811057	     -0.51815410	     -6.11278548	     -6.48461449	     26.00025624	    -13.18732124	    -13.79790598	    -12.11638426	    -29.40728602	     35.79354430	     98.21593828	     -5.93980694	     -4.92466239	      0.05540788	     38.13454751	     97.43511898
      0.08000000	     -5.69622362	     -9.34007638	      0.50354797	      0.04122411	      0.90811090	     -0.20871606	     21.92022388	     11.67685474	     -0.74857753	      6.33856083	      0.11062876	     -5.39862736	     -7.18597420	     -6.14521112	    -13.56968037	     -6.13660397	     -0.45375282	     26.96762053	      0.47067377	     -8.14978330	     -0.98619093	     -6.14521112	     -6.39531269	     26.70379434	    -13.47328554	    -13.64915805	    -12.17687889	    -29.81772546	     36.16238792	     98.42570111	     -6.24119059	     -5.01688206	      0.81846162	     39.10973410	     97.82675414
      0.09000000	     -5.78771149	     -9.46886946	      0.57328423	      0.05159997	      0.90998792	     -0.20879489	     21.21745282	     11.85045166	     -0.42368078	      6.22985748	      0.10873152	     -5.09347258	     -7.37165453	     -6.16330794	    -12.61187926	     -6.49330526	     -0.50550608	     28.96051320	      0.50545631	    -10.02900232	     -0.99314293	     -6.16330794	     -6.38097433	     27.31693137	    -13.65842343	    -13.54243061	    -12.20314699	    -30.09165307	     36.38271440	     98.53584327	     -6.38854802	     -5.09803513	      1.33997898	     39.93779439	     98.08400865
      0.10000000	     -5.87566309	     -9.46178401	      0.63728297	      0.06164976	      0.91177450	     -0.20893648	     20.56467860	     11.87461113	     -0.00428627	      6.19198044	      0.10807045	     -4.99585325	     -7.78893201	     -6.22874849	    -11.56365544	     -6.66415881	     -0.39863759	     30.99924534	      0.54103890	    -12.18054123	     -1.55918341	     -6.22874849	     -6.43365505	     27.78792150	    -13.73017934	    -13.45423137	    -12.07033413	    -30.91761669	     36.80865690	     98.91846316	     -6.56584162	     -5.31399473	      2.17288378	     41.23540886	     98.72861508
      0.11000000	     -5.95567734	     -9.51366138	      0.68330117	      0.07156961	      0.91341805	     -0.20894850	     19.92367569	     11.96419111	      0.29642941	      6.16883988	      0.10766657	     -4.62745405	     -7.81523252	     -6.24727505	    -10.40535761	     -6.98467646	     -0.47110839	     33.20456765	      0.57952903	    -13.92696987	     -1.29617488	     -6.24727505	     -6.48978137	     28.26987574	    -13.75646615	    -13.34462065	    -12.06248411	    -31.15594476	     37.01052154	     99.01858294	     -6.69248151	     -5.46299471	      2.67015812	     42.41422586	     99.01068725
      0.12000000	     -5.99912460	     -9.49650781	      0.73899605	      0.08122193	      0.91496219	     -0.20892305	     19.29033514	     11.98220822	      0.50400655	      6.19449858	      0.10811440	     -4.27493246	     -7.85260385	     -6.26609706	     -9.19390771	     -7.22448695	     -0.45789075	     35.47058334	      0.61907847	    -15.59575533	     -1.21730839	     -6.26609706	     -6.62226599	     28.64583260	    -13.72004362	    -13.23592662	    -11.98395757	    -31.48302217	     37.24350129	     99.10652046	     -6.86197510	     -5.71403246	      3.19835164	     43.94481520	     99.33257246
      0.13000000	     -6.01378188	     -9.47424962	      0.76652116	      0.09070967	      0.91638150	     -0.20883611	     18.64929898	     12.00619001	      0.62062750	      6.22951497	      0.10872555	     -3.91711718	     -7.85008660	     -6.28619092	     -7.96189121	     -7.44728937	     -0.43092353	     37.74828865	      0.65883192	    -17.11927745	     -1.24346743	     -6.28619092	     -6.79101557	     28.97186865	    -13.58937147	    -13.11157372	    -11.87352443	    -31.86726562	     37.50369968	     99.19104806	     -7.05643396	     -5.97832834	      3.68092285	     45.64182606	     99.66975044
      0.14000000	     -5.96206862	     -9.43969906	      0.79385837	      0.09995246	      0.91779877	     -0.20871947	     17.94492421	     12.02485087	      0.64829407	      6.24186911	      0.10894117	     -3.54678872	     -7.79798648	     -6.30423583	     -6.71267234	     -7.65076689	     -0.37125525	     40.07727483	      0.69948040	    -18.38942249	     -1.28787605	     -6.30423583	     -7.08254800	     29.26345737	    -13.33860696	    -13.00107252	    -11.75103460	    -32.21011323	     37.72200457	     99.26117469	     -7.18312848	     -6.23437043	      4.04574186	     47.29583534	     99.97047577
      0.15000000	     -5.87974969	     -9.35521173	      0.80429117	      0.10904580	      0.91914138	     -0.20862727	     17.24199156	     11.98268022	      0.54336543	      6.30298358	      0.11000782	     -3.11537501	     -7.59514944	     -6.34334711	     -5.47900976	     -7.75824613	     -0.25020311	     42.32741626	      0.73875278	    -19.41078550	     -1.60297117	     -6.34334711	     -7.43677916	     29.48644493	    -13.10350802	    -12.81758869	    -11.58337471	    -32.78649140	     38.08896786	     99.41600454	     -7.37938297	     -6.49275611	      4.24720683	     49.17725878	    100.36581317
      0.16000000	     -5.64086913	     -9.20114924	      0.79686754	      0.11790819	      0.92074189	     -0.20849537	     16.33724117	     11.88478266	      0.50455492	      6.26364114	      0.10932116	     -2.86548632	     -7.52281141	     -6.34975399	     -4.39397592	     -7.75878576	     -0.07944846	     44.46971089	      0.77614287	    -19.98626429	     -1.58626669	     -6.34975399	     -7.97825080	     29.59385155	    -12.63452329	    -12.63076287	    -11.49257182	    -32.81789596	     38.11008922	     99.44376265	     -7.12827433	     -6.61233125	      4.32062727	     50.01872675	    100.48060607
      0.17000000	     -5.65031031	     -9.27417897	      0.71967305	      0.12675865	      0.92176576	     -0.20824924	     15.69995280	     12.03107301	      0.38482625	      6.20046844	      0.10821859	     -2.32897766	     -7.20004124	     -6.37511979	     -2.94040360	     -8.04793793	     -0.07628836	     46.74896902	      0.81592343	    -20.29835656	     -2.13889150	     -6.37511979	     -8.25639754	     29.95053944	    -12.26805206	    -12.47180871	    -11.43653794	    -33.17325134	     38.43471467	     99.54097821	     -7.46939668	     -6.89265062	      4.58041156	     52.18741485	    100.79599097
      0.18000000	     -5.46187927	     -9.24581970	      0.67887502	      0.13548508	      0.92310827	     -0.20808574	     14.81761656	     12.06377701	      0.28085423	      6.09280049	      0.10633943	     -1.86937307	     -6.97071014	     -6.39031665	     -1.68362291	     -8.17655884	      0.04004918	     48.85870295	      0.85274523	    -20.28187908	     -2.66406833	     -6.39031665	     -8.72433431	     30.15874307	    -11.72692108	    -12.30661452	    -11.39954751	    -33.30571055	     38.49044400	     99.59964082	     -7.38021553	     -6.93181333	      4.54830237	     53.37177060	    100.94163346
